<?xml version="1.0" encoding="iso-8859-1"?>
<!-- Generator: Adobe Illustrator 18.0.0, SVG Export Plug-In . SVG Version: 6.00 Build 0)  -->
<!DOCTYPE svg PUBLIC "-//W3C//DTD SVG 1.1//EN" "http://www.w3.org/Graphics/SVG/1.1/DTD/svg11.dtd">
<svg version="1.1" id="Capa_1"
    xmlns="http://www.w3.org/2000/svg"
    xmlns:xlink="http://www.w3.org/1999/xlink" x="0px" y="0px" viewBox="0 0 382.975 382.975" style="enable-background:new 0 0 382.975 382.975;" xml:space="preserve">
    <g>
        <path style="fill:none;" d="M346.566,24H36.407c-6.842,0-12.406,5.567-12.406,12.409v310.157c0,6.842,5.564,12.409,12.406,12.409
		h310.158c6.842,0,12.408-5.567,12.408-12.409V36.409C358.974,29.567,353.408,24,346.566,24z M191.49,339.529
		c-81.631,0-148.045-66.412-148.045-148.042c0-81.63,66.414-148.041,148.045-148.041c81.629,0,148.039,66.411,148.039,148.041
		C339.529,273.117,273.118,339.529,191.49,339.529z"/>
        <g>
            <path style="fill:#3D6889;" d="M346.566,0H36.407C16.333,0,0.001,16.333,0.001,36.409v310.157
			c0,20.076,16.332,36.409,36.406,36.409h310.158c20.076,0,36.408-16.333,36.408-36.409V36.409C382.974,16.333,366.642,0,346.566,0z
			 M358.974,346.566c0,6.842-5.566,12.409-12.408,12.409H36.407c-6.842,0-12.406-5.567-12.406-12.409V36.409
			C24.001,29.567,29.566,24,36.407,24h310.158c6.842,0,12.408,5.567,12.408,12.409V346.566z"/>
            <g>
                <path style="fill:#73D0F4;" d="M191.49,67.446c-68.398,0-124.045,55.644-124.045,124.041
				c0,68.397,55.646,124.042,124.045,124.042c68.396,0,124.039-55.645,124.039-124.042C315.529,123.09,259.886,67.446,191.49,67.446
				z M191.49,289.855c-54.24,0-98.369-44.128-98.369-98.368c0-6.627,5.373-12,12-12c6.627,0,12,5.373,12,12
				c0,41.007,33.363,74.368,74.369,74.368c6.627,0,12,5.372,12,12C203.49,284.482,198.117,289.855,191.49,289.855z"/>
                <path style="fill:#3D6889;" d="M191.49,43.446c-81.631,0-148.045,66.411-148.045,148.041c0,81.63,66.414,148.042,148.045,148.042
				c81.629,0,148.039-66.412,148.039-148.042C339.529,109.857,273.118,43.446,191.49,43.446z M191.49,315.529
				c-68.398,0-124.045-55.645-124.045-124.042c0-68.397,55.646-124.041,124.045-124.041c68.396,0,124.039,55.644,124.039,124.041
				C315.529,259.884,259.886,315.529,191.49,315.529z"/>
                <path style="fill:#3D6889;" d="M191.49,265.855c-41.006,0-74.369-33.361-74.369-74.368c0-6.627-5.373-12-12-12
				c-6.627,0-12,5.373-12,12c0,54.24,44.129,98.368,98.369,98.368c6.627,0,12-5.373,12-12
				C203.49,271.227,198.117,265.855,191.49,265.855z"/>
            </g>
        </g>
    </g>
    <g>
    </g>
    <g>
    </g>
    <g>
    </g>
    <g>
    </g>
    <g>
    </g>
    <g>
    </g>
    <g>
    </g>
    <g>
    </g>
    <g>
    </g>
    <g>
    </g>
    <g>
    </g>
    <g>
    </g>
    <g>
    </g>
    <g>
    </g>
    <g>
    </g>
</svg>
